<svg width="411" height="300" viewBox="0 0 411 300" fill="none" xmlns="http://www.w3.org/2000/svg">
<g clip-path="url(#clip0_28_117)">
<path d="M17.2856 299.46L393.477 299.46C402.716 299.46 410.205 292.213 410.205 283.273L410.205 16.7273C410.205 7.78702 402.716 0.53952 393.477 0.53952L17.2856 0.53952C8.0473 0.53952 0.558197 7.78702 0.558197 16.7273L0.558197 283.273C0.558197 292.213 8.0473 299.46 17.2856 299.46Z" fill="#EBEBEB"/>
<path d="M0 283.273V16.7274C0.00516524 12.2925 1.82791 8.04076 5.06835 4.90485C8.30879 1.76895 12.7023 0.00499862 17.285 0H393.477C398.059 0.00499862 402.453 1.76895 405.693 4.90485C408.934 8.04076 410.757 12.2925 410.762 16.7274V283.273C410.757 287.707 408.934 291.959 405.693 295.095C402.453 298.231 398.059 299.995 393.477 300H17.285C12.7023 299.995 8.30879 298.231 5.06835 295.095C1.82791 291.959 0.00516524 287.707 0 283.273ZM17.285 1.07919C12.998 1.08404 8.88806 2.73424 5.85672 5.6678C2.82539 8.60135 1.12018 12.5787 1.11516 16.7274V283.273C1.12003 287.421 2.82519 291.399 5.85656 294.332C8.88793 297.266 12.9979 298.916 17.285 298.921H393.477C397.764 298.916 401.874 297.266 404.905 294.333C407.937 291.399 409.642 287.421 409.647 283.273V16.7274C409.642 12.5787 407.937 8.60122 404.905 5.66764C401.874 2.73406 397.764 1.0839 393.477 1.07919H17.285Z" fill="#EBEBEB"/>
<path d="M0.558105 16.7257V33.0144H410.202V16.7257C410.202 12.4325 408.44 8.31505 405.303 5.27925C402.166 2.24346 397.911 0.537964 393.475 0.537964H17.2855C12.8491 0.537964 8.59443 2.24346 5.45743 5.27925C2.32044 8.31505 0.558105 12.4325 0.558105 16.7257Z" fill="#00786F"/>
<path d="M388.071 48.4927H228.453C224.536 48.4927 221.359 51.5663 221.359 55.3579V164.63C221.359 168.421 224.536 171.495 228.453 171.495H388.071C391.988 171.495 395.165 168.421 395.165 164.63V55.3579C395.165 51.5663 391.988 48.4927 388.071 48.4927Z" fill="#EBEBEB"/>
<path opacity="0.15" d="M388.071 48.4927H228.453C224.536 48.4927 221.359 51.5663 221.359 55.3579V164.63C221.359 168.421 224.536 171.495 228.453 171.495H388.071C391.988 171.495 395.165 168.421 395.165 164.63V55.3579C395.165 51.5663 391.988 48.4927 388.071 48.4927Z" fill="#00D5BE"/>
<path d="M252.556 63.8414H238.761C238.121 63.8414 237.601 64.3442 237.601 64.9643V155.023C237.601 155.644 238.121 156.146 238.761 156.146H252.556C253.197 156.146 253.717 155.644 253.717 155.023V64.9643C253.717 64.3442 253.197 63.8414 252.556 63.8414Z" fill="#F3F3F3"/>
<path opacity="0.6" d="M237.601 109.088H253.715V155.023C253.715 155.321 253.593 155.607 253.375 155.817C253.158 156.028 252.863 156.146 252.555 156.146H238.761C238.454 156.146 238.159 156.028 237.941 155.817C237.723 155.607 237.601 155.321 237.601 155.023V109.088Z" fill="#00D5BE"/>
<path d="M283.858 63.8414H270.063C269.422 63.8414 268.903 64.3442 268.903 64.9643V155.023C268.903 155.644 269.422 156.146 270.063 156.146H283.858C284.499 156.146 285.018 155.644 285.018 155.023V64.9643C285.018 64.3442 284.499 63.8414 283.858 63.8414Z" fill="#F3F3F3"/>
<path opacity="0.6" d="M268.903 96.2947H285.017V155.023C285.017 155.321 284.894 155.606 284.677 155.817C284.459 156.027 284.164 156.146 283.856 156.146H270.063C269.755 156.146 269.46 156.027 269.242 155.817C269.025 155.606 268.903 155.321 268.903 155.023V96.2947Z" fill="#00D5BE"/>
<path d="M377.763 63.8414H363.968C363.327 63.8414 362.807 64.3442 362.807 64.9643V155.023C362.807 155.644 363.327 156.146 363.968 156.146H377.763C378.404 156.146 378.923 155.644 378.923 155.023V64.9643C378.923 64.3442 378.404 63.8414 377.763 63.8414Z" fill="#F3F3F3"/>
<path opacity="0.6" d="M362.807 83.3876H378.921V155.024C378.921 155.322 378.799 155.607 378.582 155.818C378.364 156.029 378.069 156.147 377.761 156.147H363.968C363.661 156.147 363.365 156.029 363.148 155.818C362.93 155.607 362.808 155.322 362.808 155.024V83.3876H362.807Z" fill="#00D5BE"/>
<path d="M315.16 63.8414H301.365C300.724 63.8414 300.205 64.3442 300.205 64.9643V155.023C300.205 155.644 300.724 156.146 301.365 156.146H315.16C315.801 156.146 316.32 155.644 316.32 155.023V64.9643C316.32 64.3442 315.801 63.8414 315.16 63.8414Z" fill="#F3F3F3"/>
<path opacity="0.6" d="M300.205 129.78H316.319V155.023C316.319 155.321 316.196 155.607 315.979 155.817C315.761 156.028 315.466 156.146 315.158 156.146H301.365C301.057 156.146 300.762 156.028 300.544 155.817C300.327 155.607 300.205 155.321 300.205 155.023V129.78Z" fill="#00D5BE"/>
<path d="M346.461 63.8414H332.666C332.025 63.8414 331.506 64.3442 331.506 64.9643V155.023C331.506 155.644 332.025 156.146 332.666 156.146H346.461C347.102 156.146 347.622 155.644 347.622 155.023V64.9643C347.622 64.3442 347.102 63.8414 346.461 63.8414Z" fill="#F3F3F3"/>
<path opacity="0.6" d="M331.504 113.65H347.618V155.023C347.618 155.321 347.496 155.606 347.278 155.817C347.061 156.028 346.766 156.146 346.458 156.146H332.666C332.514 156.146 332.363 156.117 332.222 156.06C332.081 156.004 331.953 155.921 331.846 155.817C331.738 155.713 331.652 155.589 331.594 155.453C331.536 155.316 331.506 155.17 331.506 155.023V113.65H331.504Z" fill="#00D5BE"/>
<path opacity="0.15" d="M385.01 183.535H229.594C223.986 183.535 219.439 187.935 219.439 193.363V274.804C219.439 280.231 223.986 284.631 229.594 284.631H385.01C390.618 284.631 395.165 280.231 395.165 274.804V193.363C395.165 187.935 390.618 183.535 385.01 183.535Z" fill="#00D5BE"/>
<path d="M324.556 208.787C326.64 208.787 328.33 207.152 328.33 205.134C328.33 203.117 326.64 201.481 324.556 201.481C322.471 201.481 320.781 203.117 320.781 205.134C320.781 207.152 322.471 208.787 324.556 208.787Z" fill="#00D5BE"/>
<path d="M324.556 227.409C326.64 227.409 328.33 225.774 328.33 223.756C328.33 221.739 326.64 220.103 324.556 220.103C322.471 220.103 320.781 221.739 320.781 223.756C320.781 225.774 322.471 227.409 324.556 227.409Z" fill="#262626"/>
<path d="M324.556 246.032C326.64 246.032 328.33 244.396 328.33 242.378C328.33 240.361 326.64 238.725 324.556 238.725C322.471 238.725 320.781 240.361 320.781 242.378C320.781 244.396 322.471 246.032 324.556 246.032Z" fill="#EBEBEB"/>
<path opacity="0.5" d="M324.556 264.653C326.64 264.653 328.33 263.018 328.33 261C328.33 258.983 326.64 257.347 324.556 257.347C322.471 257.347 320.781 258.983 320.781 261C320.781 263.018 322.471 264.653 324.556 264.653Z" fill="#00D5BE"/>
<path d="M376.941 205.133C376.941 205.681 376.716 206.206 376.315 206.594C375.915 206.982 375.372 207.199 374.805 207.199H338.521C338.017 207.208 337.524 207.049 337.126 206.748C336.728 206.448 336.449 206.024 336.335 205.548C336.272 205.247 336.278 204.937 336.354 204.639C336.43 204.341 336.574 204.064 336.774 203.826C336.975 203.588 337.227 203.397 337.514 203.265C337.8 203.134 338.113 203.066 338.43 203.066H374.805C375.086 203.066 375.363 203.119 375.623 203.223C375.882 203.327 376.117 203.479 376.315 203.671C376.514 203.863 376.671 204.091 376.778 204.342C376.886 204.592 376.941 204.861 376.941 205.133Z" fill="#EBEBEB"/>
<path d="M376.941 223.756C376.941 224.304 376.716 224.829 376.315 225.217C375.915 225.604 375.372 225.822 374.805 225.822H338.543C338.247 225.826 337.953 225.773 337.679 225.666C337.404 225.558 337.155 225.398 336.945 225.196C336.735 224.993 336.57 224.752 336.458 224.486C336.347 224.221 336.292 223.936 336.296 223.65C336.324 223.121 336.562 222.622 336.959 222.257C337.356 221.893 337.883 221.689 338.431 221.689H374.805C375.086 221.689 375.363 221.743 375.623 221.847C375.882 221.95 376.117 222.103 376.315 222.294C376.514 222.486 376.671 222.714 376.778 222.965C376.886 223.215 376.941 223.484 376.941 223.756Z" fill="#EBEBEB"/>
<path d="M376.941 242.379C376.941 242.927 376.716 243.452 376.315 243.84C375.915 244.227 375.371 244.445 374.805 244.445H338.21C337.701 244.445 337.213 244.25 336.854 243.902C336.494 243.553 336.292 243.081 336.292 242.589V242.169C336.292 241.676 336.494 241.204 336.854 240.856C337.213 240.508 337.701 240.312 338.21 240.312H374.805C375.085 240.312 375.363 240.366 375.622 240.47C375.881 240.573 376.117 240.726 376.315 240.917C376.513 241.109 376.671 241.337 376.778 241.588C376.885 241.838 376.941 242.107 376.941 242.379Z" fill="#EBEBEB"/>
<path d="M376.941 261.001C376.941 261.55 376.716 262.075 376.315 262.463C375.915 262.85 375.372 263.068 374.805 263.068H338.53C338.024 263.077 337.531 262.919 337.131 262.618C336.732 262.318 336.451 261.895 336.335 261.419C336.272 261.118 336.278 260.808 336.354 260.51C336.43 260.212 336.573 259.934 336.774 259.697C336.974 259.459 337.227 259.268 337.513 259.136C337.799 259.005 338.112 258.936 338.429 258.936H374.804C375.084 258.936 375.362 258.989 375.621 259.093C375.88 259.197 376.116 259.349 376.314 259.541C376.513 259.732 376.67 259.96 376.778 260.211C376.885 260.461 376.941 260.73 376.941 261.001Z" fill="#EBEBEB"/>
<path d="M253.729 233.067C253.73 237.52 255.157 241.864 257.815 245.499C260.473 249.134 264.23 251.882 268.569 253.364L262.467 267.766C254.074 264.706 247.058 258.892 242.639 251.339C238.22 243.787 236.68 234.973 238.287 226.434C239.893 217.895 244.545 210.172 251.43 204.611C258.316 199.049 267 196.002 275.969 196.001V211.548C270.071 211.548 264.414 213.815 260.244 217.851C256.073 221.886 253.729 227.36 253.729 233.067Z" fill="#00D5BE"/>
<path d="M314.275 233.067H298.208C298.208 227.359 295.865 221.885 291.695 217.849C287.524 213.813 281.867 211.545 275.969 211.545V195.997C286.129 195.997 295.872 199.903 303.055 206.855C310.239 213.807 314.275 223.236 314.275 233.067Z" fill="#777777"/>
<path d="M314.275 233.067C314.274 241.467 311.326 249.618 305.915 256.185C300.503 262.752 292.948 267.347 284.486 269.217L281.765 253.848C286.484 252.614 290.652 249.91 293.625 246.154C296.597 242.397 298.208 237.798 298.209 233.067H314.275Z" fill="#EBEBEB"/>
<path opacity="0.5" d="M284.486 269.217C277.157 270.824 269.503 270.319 262.467 267.765L268.569 253.364C272.817 254.807 277.416 254.976 281.764 253.85L284.486 269.217Z" fill="#00D5BE"/>
<path opacity="0.15" d="M197.141 48.4927H25.6136C20.0706 48.4927 15.5771 52.8412 15.5771 58.2053V274.919C15.5771 280.283 20.0706 284.631 25.6136 284.631H197.141C202.684 284.631 207.177 280.283 207.177 274.919V58.2053C207.177 52.8412 202.684 48.4927 197.141 48.4927Z" fill="#00D5BE"/>
<path d="M163.216 140.653C163.216 151.428 159.915 161.961 153.729 170.921C147.543 179.88 138.751 186.863 128.464 190.986C118.177 195.11 106.858 196.189 95.9378 194.087C85.0174 191.985 74.9864 186.796 67.1132 179.177C59.24 171.558 53.8783 161.85 51.706 151.282C49.5338 140.714 50.6486 129.76 54.9095 119.805C59.1704 109.85 66.386 101.341 75.6438 95.3551C84.9017 89.3687 95.7859 86.1735 106.92 86.1735V140.653H163.216Z" fill="#F3F3F3"/>
<path opacity="0.6" d="M170.119 133.576H113.825V79.0967C128.756 79.0973 143.074 84.8373 153.631 95.0542C164.188 105.271 170.119 119.128 170.119 133.576Z" fill="#00D5BE"/>
<path opacity="0.6" d="M48.5451 226.038C50.6298 226.038 52.3199 224.403 52.3199 222.385C52.3199 220.368 50.6298 218.732 48.5451 218.732C46.4603 218.732 44.7703 220.368 44.7703 222.385C44.7703 224.403 46.4603 226.038 48.5451 226.038Z" fill="#00D5BE"/>
<path d="M48.5451 244.661C50.6298 244.661 52.3199 243.025 52.3199 241.007C52.3199 238.99 50.6298 237.354 48.5451 237.354C46.4603 237.354 44.7703 238.99 44.7703 241.007C44.7703 243.025 46.4603 244.661 48.5451 244.661Z" fill="#F3F3F3"/>
<path opacity="0.6" d="M177.875 222.387C177.875 222.935 177.65 223.46 177.25 223.848C176.849 224.236 176.306 224.453 175.74 224.453H62.5106C62.0056 224.462 61.5129 224.303 61.1148 224.002C60.7167 223.702 60.4374 223.278 60.3237 222.802C60.2605 222.501 60.2671 222.191 60.3431 221.893C60.4192 221.595 60.5627 221.317 60.7633 221.079C60.9639 220.842 61.2166 220.65 61.5031 220.519C61.7895 220.388 62.1026 220.319 62.4197 220.32H175.74C176.02 220.32 176.298 220.373 176.557 220.477C176.816 220.581 177.052 220.733 177.25 220.925C177.448 221.117 177.606 221.345 177.713 221.596C177.82 221.846 177.875 222.115 177.875 222.387Z" fill="#00D5BE"/>
<path d="M177.876 241.007C177.876 241.555 177.651 242.081 177.25 242.468C176.85 242.856 176.306 243.074 175.74 243.074H62.5325C62.2364 243.078 61.9423 243.025 61.6678 242.917C61.3932 242.809 61.1438 242.65 60.9342 242.447C60.7246 242.245 60.5591 242.003 60.4475 241.738C60.3358 241.472 60.2804 241.188 60.2844 240.901C60.3131 240.372 60.5506 239.873 60.9479 239.508C61.3453 239.144 61.8722 238.94 62.4199 238.94H175.74C176.02 238.94 176.298 238.994 176.557 239.098C176.816 239.201 177.052 239.354 177.25 239.546C177.448 239.738 177.606 239.965 177.713 240.216C177.82 240.467 177.876 240.736 177.876 241.007Z" fill="#EBEBEB"/>
</g>
<defs>
<clipPath id="clip0_28_117">
<rect width="410.762" height="300" fill="white"/>
</clipPath>
</defs>
</svg>
