<svg width="64" height="64" viewBox="0 0 64 64" fill="none" xmlns="http://www.w3.org/2000/svg">
<path d="M25.6815 4.0815C26.5468 4.00187 27.3729 3.95458 28.2025 4.25951C29.1679 4.61439 29.9244 5.37433 30.3441 6.2983C30.3966 6.41251 30.4431 6.52903 30.4838 6.64785C30.5245 6.76663 30.5591 6.88716 30.5876 7.00942C30.6162 7.13166 30.6385 7.25501 30.6546 7.37948C30.6707 7.50392 30.6804 7.62885 30.684 7.75429C30.6874 7.87969 30.6846 8.00497 30.6754 8.13013C30.6663 8.25526 30.6508 8.37963 30.6291 8.50324C30.6074 8.62686 30.5796 8.74909 30.5455 8.86995C30.5115 8.99081 30.4715 9.10968 30.4254 9.22656C30.0446 10.1911 29.277 11.043 28.3113 11.4581C27.2674 11.9065 26.0347 11.7519 25.0021 11.3456C23.9202 10.9198 23.4622 10.1751 23.0225 9.16586C22.0332 9.20771 20.1127 8.83029 19.3783 9.52103C18.9237 9.9486 10.3987 24.6298 10.3967 24.7193C11.5321 24.893 12.8031 24.7854 13.9539 24.784C16.4219 24.7809 18.9033 24.7372 21.3689 24.8484C21.6191 24.3226 21.8816 23.8648 22.2779 23.4298C23.2899 22.3189 24.6203 22.2225 26.0319 22.1567C26.8912 20.2912 28.1189 18.5207 29.1529 16.7435C31.0887 13.352 33.0623 9.98215 35.0735 6.63395C38.1228 6.24822 41.2816 6.72993 44.3506 6.50427C44.7103 5.6504 45.1488 4.98633 45.9763 4.50617C46.9151 3.96151 48.1377 3.87651 49.1763 4.15497C50.1582 4.41818 50.9618 5.07013 51.4613 5.94198C52.0672 6.99921 52.1281 8.0669 51.8126 9.21854C51.5022 9.84803 50.9952 10.4949 50.439 10.9243C49.1617 11.9101 47.0758 12.0577 45.7438 11.0666C45.1305 10.6103 44.6448 9.34458 43.9058 9.22181C41.8211 8.87549 38.9945 9.35711 36.6992 9.07137C35.0875 11.5561 33.701 14.233 32.2013 16.7893C31.3016 18.3231 28.9039 21.8377 28.4391 23.4018C28.244 24.0581 29.7144 25.5547 28.9366 27.5101C28.5544 28.4709 27.7837 29.2936 26.8219 29.6991C26.702 29.7486 26.5799 29.7921 26.4557 29.8296C26.3314 29.8672 26.2056 29.8986 26.0783 29.9238C25.9509 29.9491 25.8226 29.9681 25.6934 29.9808C25.5641 29.9935 25.4345 29.9999 25.3046 30C25.1747 30.0001 25.0451 29.9938 24.9159 29.9812C24.7866 29.9686 24.6583 29.9498 24.5309 29.9246C24.4035 29.8995 24.2776 29.8682 24.1533 29.8308C24.0291 29.7934 23.9069 29.75 23.787 29.7007C22.6444 29.2307 21.9544 28.4371 21.4936 27.3256C19.0774 27.5158 16.5375 27.3673 14.11 27.3722C11.4709 27.3776 8.68234 27.557 6.05863 27.2876L6 27.1656C6.17254 26.4967 17.1621 7.66794 17.8617 6.89451C18.428 6.26832 22.0136 6.54637 23.0034 6.49501C23.112 6.2247 23.2287 5.94016 23.3962 5.70024C23.9119 4.96152 24.7713 4.24842 25.6815 4.0815ZM23.7771 26.1555C23.989 26.644 24.1444 27.1326 24.6825 27.3478C24.9578 27.4579 25.334 27.4498 25.6303 27.4836C26.0682 27.163 26.4576 26.8116 26.5364 26.245C26.5792 25.9374 26.511 25.6246 26.3172 25.3779C26.1075 25.1109 25.7163 24.8362 25.3665 24.801C25.122 24.7764 24.8512 24.8116 24.6068 24.836C24.2195 25.2324 23.9967 25.6525 23.7771 26.1555ZM48.4248 9.09027C48.4649 9.07913 48.5044 9.06612 48.5433 9.05123C48.5823 9.03637 48.6204 9.01971 48.6576 9.00124C48.6949 8.9828 48.7312 8.96264 48.7666 8.94078C48.8019 8.91889 48.836 8.89541 48.8688 8.87032C48.9019 8.84521 48.9337 8.8186 48.9643 8.79051C48.9949 8.76242 49.024 8.73296 49.0516 8.70214C49.0794 8.6713 49.1055 8.63922 49.13 8.60592C49.1548 8.57262 49.1778 8.53824 49.1993 8.50279C49.2204 8.46731 49.2399 8.43092 49.2577 8.39362C49.2758 8.35632 49.2918 8.31825 49.3057 8.27941C49.3199 8.24059 49.3322 8.2012 49.3428 8.16123C49.3531 8.12125 49.3616 8.08088 49.3683 8.04011C49.3747 7.99933 49.3792 7.95834 49.382 7.91713C49.3845 7.87594 49.3851 7.83471 49.3837 7.79345C49.3823 7.75218 49.379 7.71107 49.3737 7.67014C49.3684 7.6292 49.3612 7.58859 49.352 7.54831C49.3428 7.50804 49.3317 7.4683 49.3186 7.4291C49.3055 7.38987 49.2906 7.35134 49.274 7.31352C49.2573 7.2757 49.2389 7.23876 49.2189 7.2027C49.1986 7.16661 49.1766 7.13156 49.1529 7.09754C49.1293 7.06352 49.1041 7.03069 49.0774 6.99904C49.0507 6.96742 49.0225 6.93711 48.9927 6.90811C48.963 6.87914 48.9319 6.85162 48.8997 6.82557C48.8674 6.79949 48.834 6.775 48.7995 6.75209C48.7647 6.72918 48.729 6.70796 48.6923 6.68841C48.6556 6.66887 48.618 6.65108 48.5796 6.63507C48.5412 6.61905 48.5021 6.60488 48.4624 6.59256C48.4226 6.58024 48.3824 6.5698 48.3418 6.56126C48.3009 6.55271 48.2597 6.54611 48.2183 6.54145C48.1771 6.53679 48.1356 6.53407 48.0939 6.5333C48.0522 6.53256 48.0106 6.53376 47.9692 6.5369C47.9277 6.54007 47.8864 6.54518 47.8452 6.55224C47.7868 6.56228 47.7294 6.57618 47.6729 6.59396C47.6161 6.61172 47.5611 6.63317 47.5076 6.65831C47.454 6.68345 47.4022 6.71205 47.3524 6.74411C47.3029 6.77617 47.2556 6.81142 47.2106 6.84985C47.1658 6.88825 47.1238 6.92948 47.0845 6.97353C47.0453 7.01758 47.0093 7.06406 46.9765 7.11297C46.9434 7.16184 46.9139 7.21271 46.888 7.26555C46.8621 7.3184 46.8399 7.37274 46.8212 7.42856C46.8026 7.48439 46.788 7.54119 46.7774 7.59897C46.7666 7.65675 46.7596 7.715 46.7566 7.77372C46.7538 7.83241 46.755 7.89104 46.7603 7.94959C46.7653 8.00814 46.7744 8.06608 46.7874 8.12339C46.8005 8.1807 46.8175 8.23689 46.8383 8.29194C46.8592 8.34699 46.8836 8.40042 46.9114 8.45222C46.9395 8.50399 46.971 8.55366 47.0061 8.60125C47.0409 8.6488 47.0787 8.69382 47.1196 8.7363C47.1605 8.77878 47.2042 8.81834 47.2506 8.85498C47.2971 8.89159 47.3457 8.92495 47.3967 8.95505C47.4476 8.98513 47.5004 9.01167 47.5552 9.03469C47.6097 9.05771 47.6655 9.07698 47.7225 9.0925C47.7799 9.10802 47.8378 9.11964 47.8965 9.12736C47.9555 9.13511 48.0146 9.13888 48.0739 9.13869C48.1331 9.1385 48.1921 9.13435 48.2508 9.12624C48.3098 9.11814 48.3678 9.10615 48.4248 9.09027ZM27.1307 9.07282C27.1704 9.06041 27.2094 9.04619 27.2478 9.03014C27.2861 9.01407 27.3236 8.99624 27.3603 8.97663C27.3969 8.95703 27.4326 8.93575 27.4671 8.91279C27.5017 8.88985 27.5352 8.86533 27.5674 8.83922C27.5997 8.81312 27.6306 8.78556 27.6602 8.75656C27.6898 8.72753 27.718 8.6972 27.7447 8.66555C27.7714 8.63387 27.7965 8.60103 27.8201 8.56701C27.8436 8.53299 27.8655 8.49792 27.8857 8.46181C27.9058 8.42572 27.9243 8.38877 27.9409 8.35095C27.9576 8.31312 27.9724 8.27461 27.9853 8.23541C27.9983 8.19618 28.0093 8.15644 28.0185 8.11619C28.0276 8.07595 28.0348 8.03535 28.04 7.99441C28.0453 7.95348 28.0486 7.91239 28.0499 7.87115C28.0512 7.8299 28.0505 7.78869 28.0479 7.7475C28.0452 7.70632 28.0406 7.66535 28.0341 7.62461C28.0275 7.58386 28.019 7.54352 28.0086 7.50357C27.9981 7.46363 27.9858 7.42426 27.9716 7.38547C27.9574 7.34668 27.9414 7.30866 27.9235 7.27138C27.9056 7.23411 27.886 7.19775 27.8647 7.1623C27.8434 7.12687 27.8204 7.09253 27.7957 7.05925C27.7711 7.026 27.7449 6.99397 27.7172 6.96315C27.6895 6.93236 27.6604 6.90293 27.6299 6.87486C27.5993 6.8468 27.5675 6.82024 27.5344 6.79518C27.5014 6.77012 27.4672 6.74668 27.4319 6.72484C27.3965 6.70298 27.3602 6.68284 27.323 6.66443C27.2857 6.64598 27.2477 6.62935 27.2088 6.61452C27.17 6.59966 27.1305 6.58667 27.0904 6.57556C27.0503 6.56443 27.0098 6.5552 26.9688 6.5479C26.9278 6.54059 26.8866 6.53522 26.8451 6.53177C26.8036 6.52835 26.762 6.52689 26.7204 6.52739C26.6787 6.52786 26.6372 6.5303 26.5958 6.53471C26.5544 6.53909 26.5133 6.54542 26.4725 6.55369C26.4144 6.56546 26.3573 6.58106 26.3013 6.6005C26.2453 6.61996 26.1909 6.64306 26.138 6.6698C26.0852 6.69654 26.0344 6.72669 25.9857 6.76024C25.9369 6.79379 25.8907 6.83045 25.847 6.87023C25.8033 6.90999 25.7624 6.95248 25.7245 6.99772C25.6866 7.04296 25.6519 7.09053 25.6205 7.14042C25.5891 7.19029 25.5613 7.24205 25.5369 7.2957C25.5126 7.34932 25.492 7.40433 25.4752 7.46073C25.4583 7.51714 25.4454 7.57439 25.4364 7.63251C25.4274 7.69065 25.4224 7.7491 25.4214 7.80788C25.4204 7.86668 25.4234 7.92529 25.4303 7.9837C25.4374 8.04209 25.4483 8.09975 25.4632 8.15668C25.478 8.2136 25.4967 8.26928 25.5192 8.3237C25.5417 8.37811 25.5677 8.4308 25.5974 8.48174C25.6271 8.53266 25.6601 8.58136 25.6964 8.62784C25.7328 8.67434 25.7721 8.7182 25.8144 8.75942C25.8568 8.80063 25.9017 8.83882 25.9493 8.874C25.9968 8.9092 26.0465 8.94106 26.0984 8.96956C26.1503 8.99807 26.2039 9.02299 26.2592 9.04433C26.3145 9.06564 26.371 9.08316 26.4287 9.09689C26.4864 9.11064 26.5448 9.12047 26.6038 9.12637C26.6629 9.13227 26.722 9.1342 26.7813 9.13216C26.8407 9.13015 26.8996 9.12416 26.9581 9.11421C27.0165 9.10429 27.0741 9.09049 27.1307 9.07282Z" fill="#1F2937"/>
<path d="M50.1837 12C50.3792 12.0196 50.4434 12.0465 50.6039 12.1537C50.9124 13.226 52.2169 14.9545 52.8468 15.9813C53.757 17.466 61.953 30.5131 61.9964 31.0069C61.9997 31.0442 62.0009 31.0494 61.9993 31.0914C61.9773 31.635 60.0877 34.6823 59.5703 35.1462C59.5862 35.1561 59.6016 35.1658 59.6175 35.1759C60.1462 35.5198 60.464 36.1882 60.5639 36.7708C60.7302 37.7373 60.4957 38.7846 59.8873 39.5808C59.2729 40.385 58.3142 40.8831 57.2857 41.0334C56.2819 41.1802 55.2749 40.9742 54.4544 40.3995C53.6043 39.8044 53.0849 38.9264 52.9337 37.9423C52.8358 37.3064 52.9406 36.7204 53.1572 36.1157C54.1699 33.287 56.9077 34.4713 57.6924 33.4583C58.0041 33.0556 59.1501 31.3178 59.0867 30.9214C58.1565 29.43 50.7324 16.9713 50.1882 16.7065C49.6128 17.4279 49.1466 18.3026 48.6574 19.0833C47.3785 21.1238 46.1797 23.2037 44.8809 25.2338C45.1137 25.7067 45.3584 26.1863 45.5404 26.6791C46.0297 28.0055 45.4372 29.0198 44.8423 30.1936C45.8761 31.843 46.8924 33.502 47.8913 35.1706C49.9045 38.3073 51.7223 41.5668 53.8005 44.6625C53.1146 45.6758 52.5233 46.7806 51.8853 47.8255C51.0473 49.1973 49.9293 50.6757 49.3738 52.1582C49.768 52.7173 50.1061 53.258 50.2309 53.9293C50.4056 54.8712 50.076 55.7051 49.501 56.4667C48.9166 57.2402 48.0319 57.8055 47.0331 57.9569C46.9025 57.9754 46.7713 57.9879 46.6397 57.9946C46.508 58.0013 46.3762 58.0018 46.2443 57.9961C46.1123 57.9907 45.9811 57.9793 45.8505 57.9619C45.7199 57.9442 45.5904 57.9208 45.462 57.8916C45.3338 57.8621 45.2075 57.827 45.0828 57.7863C44.9582 57.7453 44.8359 57.6988 44.7159 57.6468C44.5958 57.5948 44.4788 57.5374 44.3648 57.4747C44.2507 57.4116 44.1402 57.3438 44.0331 57.271C43.2066 56.6969 42.6506 55.7665 42.5023 54.8112C42.3694 53.957 42.6137 53.1177 43.157 52.4272C44.1648 51.1452 45.5884 50.9058 47.1533 50.6926C47.6666 49.9217 48.0961 49.1063 48.5911 48.325C49.2125 47.344 49.9362 46.3641 50.4552 45.3315C50.582 45.0798 50.723 44.7978 50.6137 44.5192C50.2162 43.507 43.1188 31.9529 42.7303 31.645C42.1674 31.1992 40.3456 31.3319 39.0139 30.082C38.3625 29.4703 38.0012 28.741 38 27.8665C37.9992 26.919 38.3686 25.8872 39.0903 25.2133C40.0465 24.3204 41.4746 24.052 42.7705 24.0672C43.2846 22.8356 49.3376 12.9181 50.1837 12ZM57.0073 38.6455C57.0636 38.6335 57.1188 38.618 57.1727 38.599C57.2269 38.58 57.2794 38.5577 57.3304 38.532C57.3813 38.5063 57.4302 38.4775 57.4771 38.4457C57.5237 38.4138 57.568 38.3791 57.61 38.3416C57.6519 38.3041 57.691 38.2641 57.727 38.2216C57.7633 38.1791 57.7963 38.1346 57.8262 38.0879C57.856 38.0412 57.8824 37.9928 57.9054 37.9428C57.9284 37.8928 57.9478 37.8415 57.9635 37.789C57.9792 37.7365 57.9911 37.6833 57.9993 37.6293C58.0074 37.5753 58.0117 37.521 58.0123 37.4664C58.0125 37.4119 58.009 37.3575 58.0017 37.3034C57.9947 37.2493 57.9837 37.1959 57.9688 37.1432C57.9539 37.0905 57.9353 37.0389 57.9131 36.9886C57.8909 36.9382 57.8652 36.8895 57.8359 36.8424C57.8069 36.7953 57.7747 36.7503 57.7392 36.7073C57.7034 36.6643 57.665 36.6238 57.6238 36.5857C57.5826 36.5476 57.5387 36.5123 57.4921 36.4798C57.4458 36.4473 57.3974 36.4178 57.347 36.3914C57.2964 36.3651 57.2442 36.342 57.1906 36.3223C57.1367 36.3026 57.0817 36.2863 57.0256 36.2736C56.9695 36.2608 56.9127 36.2516 56.8553 36.2461C56.7979 36.2406 56.7403 36.2387 56.6826 36.2405C56.6249 36.2423 56.5676 36.2477 56.5107 36.2568C56.4538 36.2658 56.3979 36.2785 56.3429 36.2946C56.3036 36.3062 56.265 36.3194 56.227 36.3345C56.1891 36.3495 56.1521 36.3662 56.1161 36.3845C56.0798 36.4029 56.0446 36.4229 56.0104 36.4444C55.976 36.466 55.943 36.489 55.9113 36.5136C55.8793 36.5381 55.8487 36.5641 55.8194 36.5914C55.7902 36.6187 55.7624 36.6473 55.7361 36.6771C55.7098 36.7069 55.6851 36.7379 55.6618 36.77C55.6385 36.8021 55.6169 36.8351 55.5971 36.8691C55.5774 36.9032 55.5592 36.938 55.5427 36.9737C55.5264 37.0093 55.5119 37.0457 55.4992 37.0826C55.4867 37.1196 55.476 37.1571 55.4671 37.195C55.4582 37.233 55.4513 37.2712 55.4464 37.3098C55.4415 37.3484 55.4385 37.3871 55.4374 37.426C55.4364 37.4648 55.4372 37.5036 55.4399 37.5424C55.4429 37.5812 55.4477 37.6197 55.4545 37.6581C55.4613 37.6964 55.4699 37.7344 55.4805 37.7719C55.4911 37.8095 55.5035 37.8465 55.5179 37.8829C55.5323 37.9193 55.5485 37.955 55.5667 37.9899C55.5845 38.0249 55.6042 38.059 55.6256 38.0921C55.647 38.1253 55.67 38.1574 55.6947 38.1885C55.7193 38.2196 55.7455 38.2495 55.7731 38.2782C55.801 38.3069 55.8301 38.3343 55.8605 38.3604C55.8911 38.3865 55.9228 38.4111 55.9556 38.4343C55.9886 38.4576 56.0228 38.4792 56.058 38.4993C56.0932 38.5195 56.1292 38.5379 56.1661 38.5548C56.2032 38.5716 56.2411 38.5868 56.2799 38.6002C56.3183 38.6136 56.3575 38.6253 56.3973 38.6352C56.4369 38.6451 56.477 38.6531 56.5176 38.6594C56.5582 38.6656 56.599 38.67 56.6399 38.6726C56.6811 38.6751 56.7221 38.6758 56.7631 38.6746C56.8042 38.6735 56.8451 38.6705 56.8858 38.6656C56.9267 38.6607 56.9672 38.654 57.0073 38.6455ZM46.3361 53.1857C45.8659 53.3471 45.44 53.4517 45.21 53.9136C45.0739 54.1872 45.0093 54.5169 45.1243 54.807C45.2401 55.0991 45.5416 55.3807 45.8456 55.5076C46.0029 55.5733 46.1882 55.6251 46.3572 55.6478C46.8356 55.5502 47.1789 55.4691 47.4585 55.0503C47.6463 54.769 47.7093 54.397 47.6252 54.0738C47.5382 53.7399 47.2761 53.5097 46.9713 53.3429C46.7571 53.2261 46.5889 53.1696 46.3361 53.1857ZM42.4064 28.9582C42.7921 28.6328 43.1208 28.1123 43.3667 27.6824C42.9233 27.1256 42.5702 26.6651 41.8005 26.5548C41.7034 26.5409 41.6066 26.5368 41.5087 26.5363C41.1015 26.7998 40.672 27.0946 40.5789 27.5878C40.5659 27.6531 40.5599 27.7189 40.561 27.7853C40.5621 27.8518 40.5702 27.9174 40.5854 27.9822C40.6006 28.0471 40.6224 28.1099 40.6508 28.1706C40.6793 28.2313 40.714 28.2887 40.7549 28.3427C40.9548 28.6067 41.3827 28.9107 41.7322 28.9562C41.9476 28.9843 42.189 28.966 42.4064 28.9582Z" fill="#1F2937"/>
<path d="M50.1837 12C50.3792 12.0196 50.4434 12.0465 50.6039 12.1537C50.9124 13.226 52.2169 14.9545 52.8468 15.9813C53.757 17.466 61.953 30.5131 61.9964 31.0069C61.9997 31.0442 62.0009 31.0494 61.9993 31.0914C61.9773 31.635 60.0877 34.6823 59.5703 35.1462C59.5862 35.1561 59.6016 35.1658 59.6175 35.1759C60.1462 35.5198 60.464 36.1882 60.5639 36.7708C60.7302 37.7373 60.4957 38.7846 59.8873 39.5808C59.2729 40.385 58.3142 40.8831 57.2857 41.0334C56.2819 41.1802 55.2749 40.9742 54.4544 40.3995C53.6043 39.8044 53.0849 38.9264 52.9337 37.9423C52.8358 37.3064 52.9406 36.7204 53.1572 36.1157C54.1699 33.287 56.9077 34.4713 57.6924 33.4583C58.0041 33.0556 59.1501 31.3178 59.0867 30.9214C58.1565 29.43 50.7324 16.9713 50.1882 16.7065C49.6128 17.4279 49.1466 18.3026 48.6574 19.0833C47.3785 21.1238 46.1797 23.2037 44.8809 25.2338C45.1137 25.7067 45.3584 26.1863 45.5404 26.6791C46.0297 28.0055 45.4372 29.0198 44.8423 30.1936C45.8761 31.843 46.8924 33.502 47.8913 35.1706C49.9045 38.3073 51.7223 41.5668 53.8005 44.6625C53.1146 45.6758 52.5233 46.7806 51.8853 47.8255C51.0473 49.1973 49.9293 50.6757 49.3738 52.1582C49.768 52.7173 50.1061 53.258 50.2309 53.9293C50.4056 54.8712 50.076 55.7051 49.501 56.4667C48.9166 57.2402 48.0319 57.8055 47.0331 57.9569C46.9025 57.9754 46.7713 57.9879 46.6397 57.9946C46.508 58.0013 46.3762 58.0018 46.2443 57.9961C46.1123 57.9907 45.9811 57.9793 45.8505 57.9619C45.7199 57.9442 45.5904 57.9208 45.462 57.8916C45.3338 57.8621 45.2075 57.827 45.0828 57.7863C44.9582 57.7453 44.8359 57.6988 44.7159 57.6468C44.5958 57.5948 44.4788 57.5374 44.3648 57.4747C44.2507 57.4116 44.1402 57.3438 44.0331 57.271C43.2066 56.6969 42.6506 55.7665 42.5023 54.8112C42.3694 53.957 42.6137 53.1177 43.157 52.4272C44.1648 51.1452 45.5884 50.9058 47.1533 50.6926C47.6666 49.9217 48.0961 49.1063 48.5911 48.325C49.2125 47.344 49.9362 46.3641 50.4552 45.3315C50.582 45.0798 50.723 44.7978 50.6137 44.5192C50.2162 43.507 43.1188 31.9529 42.7303 31.645C42.1674 31.1992 40.3456 31.3319 39.0139 30.082C38.3625 29.4703 38.0012 28.741 38 27.8665C37.9992 26.919 38.3686 25.8872 39.0903 25.2133C40.0465 24.3204 41.4746 24.052 42.7705 24.0672C43.2846 22.8356 49.3376 12.9181 50.1837 12ZM57.0073 38.6455C57.0636 38.6335 57.1188 38.618 57.1727 38.599C57.2269 38.58 57.2794 38.5577 57.3304 38.532C57.3813 38.5063 57.4302 38.4775 57.4771 38.4457C57.5237 38.4138 57.568 38.3791 57.61 38.3416C57.6519 38.3041 57.691 38.2641 57.727 38.2216C57.7633 38.1791 57.7963 38.1346 57.8262 38.0879C57.856 38.0412 57.8824 37.9928 57.9054 37.9428C57.9284 37.8928 57.9478 37.8415 57.9635 37.789C57.9792 37.7365 57.9911 37.6833 57.9993 37.6293C58.0074 37.5753 58.0117 37.521 58.0123 37.4664C58.0125 37.4119 58.009 37.3575 58.0017 37.3034C57.9947 37.2493 57.9837 37.1959 57.9688 37.1432C57.9539 37.0905 57.9353 37.0389 57.9131 36.9886C57.8909 36.9382 57.8652 36.8895 57.8359 36.8424C57.8069 36.7953 57.7747 36.7503 57.7392 36.7073C57.7034 36.6643 57.665 36.6238 57.6238 36.5857C57.5826 36.5476 57.5387 36.5123 57.4921 36.4798C57.4458 36.4473 57.3974 36.4178 57.347 36.3914C57.2964 36.3651 57.2442 36.342 57.1906 36.3223C57.1367 36.3026 57.0817 36.2863 57.0256 36.2736C56.9695 36.2608 56.9127 36.2516 56.8553 36.2461C56.7979 36.2406 56.7403 36.2387 56.6826 36.2405C56.6249 36.2423 56.5676 36.2477 56.5107 36.2568C56.4538 36.2658 56.3979 36.2785 56.3429 36.2946C56.3036 36.3062 56.265 36.3194 56.227 36.3345C56.1891 36.3495 56.1521 36.3662 56.1161 36.3845C56.0798 36.4029 56.0446 36.4229 56.0104 36.4444C55.976 36.466 55.943 36.489 55.9113 36.5136C55.8793 36.5381 55.8487 36.5641 55.8194 36.5914C55.7902 36.6187 55.7624 36.6473 55.7361 36.6771C55.7098 36.7069 55.6851 36.7379 55.6618 36.77C55.6385 36.8021 55.6169 36.8351 55.5971 36.8691C55.5774 36.9032 55.5592 36.938 55.5427 36.9737C55.5264 37.0093 55.5119 37.0457 55.4992 37.0826C55.4867 37.1196 55.476 37.1571 55.4671 37.195C55.4582 37.233 55.4513 37.2712 55.4464 37.3098C55.4415 37.3484 55.4385 37.3871 55.4374 37.426C55.4364 37.4648 55.4372 37.5036 55.4399 37.5424C55.4429 37.5812 55.4477 37.6197 55.4545 37.6581C55.4613 37.6964 55.4699 37.7344 55.4805 37.7719C55.4911 37.8095 55.5035 37.8465 55.5179 37.8829C55.5323 37.9193 55.5485 37.955 55.5667 37.9899C55.5845 38.0249 55.6042 38.059 55.6256 38.0921C55.647 38.1253 55.67 38.1574 55.6947 38.1885C55.7193 38.2196 55.7455 38.2495 55.7731 38.2782C55.801 38.3069 55.8301 38.3343 55.8605 38.3604C55.8911 38.3865 55.9228 38.4111 55.9556 38.4343C55.9886 38.4576 56.0228 38.4792 56.058 38.4993C56.0932 38.5195 56.1292 38.5379 56.1661 38.5548C56.2032 38.5716 56.2411 38.5868 56.2799 38.6002C56.3183 38.6136 56.3575 38.6253 56.3973 38.6352C56.4369 38.6451 56.477 38.6531 56.5176 38.6594C56.5582 38.6656 56.599 38.67 56.6399 38.6726C56.6811 38.6751 56.7221 38.6758 56.7631 38.6746C56.8042 38.6735 56.8451 38.6705 56.8858 38.6656C56.9267 38.6607 56.9672 38.654 57.0073 38.6455ZM46.3361 53.1857C45.8659 53.3471 45.44 53.4517 45.21 53.9136C45.0739 54.1872 45.0093 54.5169 45.1243 54.807C45.2401 55.0991 45.5416 55.3807 45.8456 55.5076C46.0029 55.5733 46.1882 55.6251 46.3572 55.6478C46.8356 55.5502 47.1789 55.4691 47.4585 55.0503C47.6463 54.769 47.7093 54.397 47.6252 54.0738C47.5382 53.7399 47.2761 53.5097 46.9713 53.3429C46.7571 53.2261 46.5889 53.1696 46.3361 53.1857ZM42.4064 28.9582C42.7921 28.6328 43.1208 28.1123 43.3667 27.6824C42.9233 27.1256 42.5702 26.6651 41.8005 26.5548C41.7034 26.5409 41.6066 26.5368 41.5087 26.5363C41.1015 26.7998 40.672 27.0946 40.5789 27.5878C40.5659 27.6531 40.5599 27.7189 40.561 27.7853C40.5621 27.8518 40.5702 27.9174 40.5854 27.9822C40.6006 28.0471 40.6224 28.1099 40.6508 28.1706C40.6793 28.2313 40.714 28.2887 40.7549 28.3427C40.9548 28.6067 41.3827 28.9107 41.7322 28.9562C41.9476 28.9843 42.189 28.966 42.4064 28.9582Z" fill="#1F2937"/>
<path d="M5.26141 30.0223C5.89862 29.9305 6.68364 30.1342 7.24535 30.4102C8.08694 30.8238 8.69502 31.5705 8.97275 32.417C9.36122 33.6011 8.92264 34.5601 8.34317 35.592C9.07491 37.1951 10.7666 39.6215 11.7539 41.2033C13.4442 41.4591 16.6253 41.2848 18.4124 41.2826C21.2391 41.2792 24.148 41.4276 26.9666 41.2534C27.7706 39.8625 28.5132 39.4101 30.0255 38.8097C31.0074 38.9275 31.8914 39.1127 32.702 39.6824C32.7918 39.7448 32.8781 39.8113 32.9607 39.882C33.0434 39.9526 33.1221 40.027 33.1968 40.1051C33.2715 40.1832 33.3418 40.2646 33.4077 40.3493C33.4736 40.4341 33.5348 40.5218 33.5913 40.6124C33.6478 40.7029 33.6993 40.7959 33.7458 40.8914C33.7923 40.9869 33.8336 41.0843 33.8696 41.1836C33.9056 41.283 33.9362 41.3838 33.9614 41.4861C33.9866 41.5884 34.0062 41.6916 34.0203 41.7957C34.1681 42.8186 33.8322 43.6454 33.1796 44.4501C34.5678 46.6982 35.9423 48.9534 37.3031 51.2159C38.192 52.6756 39.1844 54.1346 39.935 55.661L39.8537 55.7317L40 55.8506L39.8904 55.9826C39.4365 55.9968 38.9815 55.9187 38.5216 55.9251C35.2737 55.9695 32.0256 55.9333 28.7772 55.9315C25.2758 55.9294 21.7067 56.1012 18.2162 55.9084C17.351 54.7916 16.6344 53.5119 15.8784 52.3241C15.5665 52.3479 15.2507 52.3735 14.9375 52.3632C13.8351 52.3277 13.148 51.8637 12.4179 51.1335C12.0728 50.7011 11.8094 50.2176 11.6994 49.6841C11.5102 48.7675 11.7303 47.842 12.293 47.0731C12.8399 46.3259 13.7034 45.8672 14.6427 45.7036C14.7568 45.6832 14.8716 45.6685 14.9872 45.6592C15.1029 45.6498 15.2187 45.6459 15.3348 45.6475C15.4509 45.6492 15.5665 45.6563 15.6818 45.6688C15.7971 45.6813 15.9114 45.6995 16.0248 45.7231C16.1381 45.7465 16.2499 45.7753 16.3602 45.8094C16.4704 45.8435 16.5785 45.8826 16.6846 45.9269C16.7906 45.9714 16.894 46.0207 16.9947 46.0749C17.0954 46.1291 17.193 46.1879 17.2874 46.2513C17.3848 46.3159 17.4786 46.3849 17.5687 46.4583C17.6588 46.5317 17.7449 46.6091 17.8269 46.6905C17.9089 46.7716 17.9864 46.8565 18.0594 46.945C18.1324 47.0337 18.2006 47.1256 18.2639 47.2205C18.3273 47.3154 18.3855 47.413 18.4385 47.5133C18.4916 47.6137 18.5392 47.7161 18.5814 47.8207C18.6237 47.9256 18.6603 48.0321 18.6913 48.1402C18.7223 48.2484 18.7475 48.3577 18.767 48.4682C18.9551 49.525 18.6115 50.4139 17.9677 51.2684C18.4499 51.9084 18.7618 52.6514 19.2246 53.3057C19.3092 53.4253 19.5275 53.7178 19.6698 53.7711C20.0493 53.9134 23.5436 53.6237 24.2173 53.612C27.189 53.545 30.1601 53.5655 33.1305 53.6734C33.9635 53.7093 34.733 53.6539 35.5559 53.7817C35.7847 53.8168 35.8863 53.7899 36.0647 53.6681C35.8874 53.1307 35.4245 52.6287 35.1285 52.137C34.0598 50.3361 32.9753 48.5436 31.8749 46.7597C31.0031 45.3656 30.7866 45.8122 29.3897 45.4579C28.1905 45.1537 27.5747 44.2535 27.0013 43.3025C26.0174 43.5268 24.757 43.4008 23.7435 43.4029L17.68 43.4196C16.2216 43.4329 14.7632 43.4538 13.3051 43.4824C12.5456 43.4977 11.7227 43.5747 10.9678 43.5201C10.7279 43.5027 10.4649 43.3333 10.2596 43.2201C9.06123 41.1895 7.32101 38.8373 6.35791 36.8156C5.33911 36.8054 4.33704 36.6155 3.49609 36.0476C2.73254 35.5319 2.19521 34.7619 2.04755 33.8855C1.9053 33.0411 2.07801 32.1505 2.62222 31.4554C3.25146 30.6517 4.2268 30.1721 5.26141 30.0223ZM5.973 34.4462C6.32363 34.2557 6.60246 34.0976 6.70964 33.7012C6.79316 33.3921 6.7488 33.0533 6.57484 32.7782C6.53047 32.7086 6.47929 32.6439 6.42129 32.5839C6.36329 32.5238 6.29961 32.4697 6.23025 32.4215C6.16086 32.3733 6.08713 32.332 6.00905 32.2975C5.93097 32.263 5.85006 32.236 5.76631 32.2165C5.58555 32.1756 5.41435 32.1734 5.23129 32.197C4.77751 32.5202 4.47381 32.7471 4.39706 33.3071C4.35681 33.6006 4.38788 33.922 4.59112 34.1599C4.76931 34.3686 5.03083 34.4947 5.31322 34.5225C5.53857 34.5446 5.75592 34.4981 5.973 34.4462ZM30.7233 43.432C30.7761 43.4214 30.8278 43.4074 30.8785 43.3901C30.9292 43.3729 30.9785 43.3525 31.0263 43.3291C31.0742 43.3054 31.1201 43.279 31.1642 43.2499C31.2082 43.2206 31.25 43.1886 31.2895 43.1541C31.329 43.1198 31.3659 43.083 31.4001 43.0437C31.4344 43.0046 31.4657 42.9636 31.4941 42.9205C31.5225 42.8772 31.5477 42.8325 31.5697 42.7863C31.5917 42.7399 31.6103 42.6925 31.6255 42.644C31.6408 42.5954 31.6525 42.5461 31.6607 42.4959C31.6689 42.4458 31.6735 42.3953 31.6745 42.3447C31.6755 42.2941 31.6729 42.2436 31.6667 42.1935C31.6605 42.1431 31.6508 42.0933 31.6375 42.0442C31.6242 41.9951 31.6075 41.9471 31.5873 41.9001C31.5672 41.8531 31.5438 41.8076 31.5172 41.7635C31.4905 41.7195 31.4609 41.6773 31.4282 41.637C31.3955 41.5966 31.3602 41.5585 31.3221 41.5227C31.284 41.4868 31.2435 41.4535 31.2006 41.4227C31.1578 41.392 31.1129 41.364 31.0661 41.3389C31.0192 41.3138 30.9708 41.2917 30.9208 41.2727C30.8708 41.2536 30.8197 41.2378 30.7675 41.2252C30.7152 41.2126 30.6623 41.2034 30.6087 41.1975C30.5551 41.1916 30.5014 41.189 30.4474 41.1898C30.3935 41.1907 30.3399 41.1949 30.2866 41.2025C30.2332 41.2101 30.1807 41.221 30.1289 41.2352C30.0918 41.2454 30.0553 41.2572 30.0194 41.2707C29.9835 41.2842 29.9484 41.2992 29.914 41.3159C29.8797 41.3325 29.8463 41.3507 29.8138 41.3703C29.7813 41.39 29.7499 41.4111 29.7196 41.4335C29.6892 41.4561 29.6601 41.4799 29.6322 41.505C29.6043 41.5301 29.5777 41.5564 29.5525 41.5839C29.5273 41.6114 29.5036 41.64 29.4813 41.6697C29.459 41.6993 29.4383 41.7299 29.4191 41.7615C29.3999 41.793 29.3824 41.8253 29.3665 41.8584C29.3507 41.8915 29.3366 41.9253 29.3241 41.9596C29.3117 41.994 29.3011 42.0289 29.2923 42.0643C29.2834 42.0995 29.2764 42.1351 29.2712 42.1711C29.266 42.2071 29.2627 42.2433 29.2612 42.2797C29.2597 42.3159 29.26 42.3522 29.2622 42.3884C29.2644 42.4246 29.2685 42.4607 29.2744 42.4966C29.2803 42.5324 29.288 42.5679 29.2975 42.6031C29.307 42.6384 29.3183 42.6731 29.3314 42.7071C29.3444 42.7412 29.3592 42.7747 29.3757 42.8076C29.3922 42.8405 29.4103 42.8726 29.4301 42.9038C29.4499 42.9348 29.4712 42.965 29.494 42.9943C29.5169 43.0237 29.5412 43.0518 29.5669 43.0788C29.5926 43.106 29.6197 43.1319 29.6481 43.1566C29.6765 43.1812 29.706 43.2045 29.7368 43.2265C29.7675 43.2485 29.7993 43.269 29.8322 43.2879C29.8651 43.3071 29.8988 43.3247 29.9335 43.3408C29.9681 43.3569 30.0035 43.3713 30.0397 43.3841C30.0758 43.3971 30.1125 43.4084 30.1498 43.4178C30.1871 43.4273 30.2248 43.4351 30.2629 43.4413C30.301 43.4474 30.3393 43.4519 30.3778 43.4547C30.4164 43.4573 30.4549 43.4583 30.4936 43.4576C30.5322 43.4566 30.5707 43.4542 30.6091 43.4501C30.6475 43.4459 30.6856 43.4398 30.7233 43.432ZM15.6198 50.1211C15.6522 50.1104 15.6841 50.0986 15.7155 50.0856C15.7469 50.0723 15.7776 50.0579 15.8076 50.0423C15.8377 50.0266 15.8669 50.0098 15.8955 49.9919C15.924 49.9739 15.9516 49.9548 15.9784 49.9347C16.0052 49.9146 16.031 49.8934 16.0558 49.8712C16.0807 49.8489 16.1044 49.8256 16.1272 49.8012C16.1499 49.7771 16.1714 49.752 16.1919 49.726C16.2123 49.7002 16.2315 49.6735 16.2495 49.6461C16.2675 49.6186 16.2842 49.5905 16.2996 49.5616C16.315 49.5327 16.3291 49.5034 16.3418 49.4736C16.3546 49.4435 16.3659 49.4131 16.3759 49.3823C16.3858 49.3513 16.3944 49.3201 16.4015 49.2886C16.4086 49.2569 16.4143 49.2251 16.4185 49.1931C16.4227 49.1612 16.4254 49.1291 16.4267 49.0969C16.428 49.0645 16.4278 49.0322 16.4261 49C16.4244 48.9678 16.4213 48.9358 16.4167 48.9038C16.4108 48.8626 16.4024 48.8218 16.3917 48.7813C16.3809 48.7409 16.3679 48.7012 16.3524 48.6624C16.3371 48.6234 16.3194 48.5852 16.2995 48.5478C16.2796 48.5106 16.2575 48.4746 16.2334 48.4398C16.2092 48.4048 16.1831 48.3712 16.155 48.339C16.1269 48.3068 16.097 48.2763 16.0653 48.2474C16.0336 48.2183 16.0003 48.1909 15.9653 48.1651C15.9304 48.1395 15.8941 48.1159 15.8563 48.0941C15.8186 48.0723 15.7797 48.0526 15.7397 48.0348C15.6996 48.0168 15.6586 48.0011 15.6167 47.9876C15.5748 47.9741 15.5322 47.9627 15.489 47.9535C15.4458 47.9445 15.4021 47.9378 15.3581 47.9333C15.3141 47.9285 15.2699 47.9262 15.2256 47.9262C15.1812 47.9262 15.1371 47.9285 15.093 47.9333C15.049 47.9378 15.0054 47.9446 14.9621 47.9539C14.9189 47.9631 14.8763 47.9745 14.8344 47.9879C14.7972 48 14.7607 48.0137 14.7249 48.0291C14.6891 48.0445 14.6543 48.0615 14.6202 48.0802C14.5862 48.0989 14.5533 48.1192 14.5214 48.1409C14.4895 48.1625 14.4588 48.1856 14.4294 48.2102C14.3999 48.2348 14.3718 48.2606 14.345 48.2876C14.3182 48.3148 14.2929 48.3431 14.2692 48.3724C14.2453 48.402 14.2231 48.4325 14.2025 48.464C14.1819 48.4955 14.163 48.5279 14.1457 48.5613C14.1285 48.5944 14.1131 48.6283 14.0994 48.6631C14.0857 48.6977 14.0739 48.7328 14.0639 48.7686C14.0539 48.8045 14.0458 48.8407 14.0396 48.8772C14.0334 48.9136 14.0292 48.9503 14.0268 48.9872C14.0245 49.0242 14.0241 49.0611 14.0256 49.098C14.0271 49.1351 14.0305 49.1719 14.0359 49.2084C14.0413 49.2451 14.0485 49.2814 14.0577 49.3174C14.0669 49.3533 14.0779 49.3888 14.0908 49.4239C14.1036 49.4589 14.1183 49.4932 14.1348 49.5268C14.1512 49.5604 14.1694 49.5931 14.1893 49.6248C14.2092 49.6567 14.2307 49.6877 14.2538 49.7178C14.2769 49.7476 14.3015 49.7764 14.3277 49.8041C14.3538 49.8318 14.3813 49.8581 14.4102 49.8832C14.4391 49.9083 14.4692 49.932 14.5006 49.9542C14.532 49.9767 14.5645 49.9975 14.598 50.0167C14.6316 50.0361 14.6661 50.0539 14.7015 50.07C14.7369 50.0863 14.7731 50.1008 14.81 50.1136C14.8469 50.1264 14.8844 50.1374 14.9225 50.1466C14.9606 50.1561 14.9991 50.1637 15.038 50.1693C15.0768 50.1753 15.1159 50.1793 15.1552 50.1814C15.1945 50.1835 15.2338 50.1839 15.2732 50.1825C15.3125 50.1811 15.3517 50.1779 15.3907 50.1729C15.4296 50.1677 15.4683 50.1608 15.5066 50.1523C15.5449 50.1436 15.5826 50.1331 15.6198 50.1211Z" fill="#1F2937"/>
</svg>
