<svg width="500" height="289" viewBox="0 0 500 289" fill="none" xmlns="http://www.w3.org/2000/svg">
<path d="M106.366 203.117L0.673174 202.797L1.10804 59.2156L74.1919 59.4371L106.701 92.1446L106.366 203.117Z" fill="#F2F2F2"/>
<path opacity="0.3" d="M74.1918 59.4371L74.0929 92.0457L106.701 92.1446L74.1918 59.4371Z" fill="#367CFF"/>
<path d="M107.367 92.1042C107.363 92.0453 107.351 91.9872 107.332 91.9312C107.325 91.9097 107.319 91.8888 107.31 91.8673C107.279 91.7941 107.234 91.7273 107.179 91.67L74.6691 58.9625C74.6119 58.9062 74.5451 58.8606 74.4719 58.8279C74.4514 58.8192 74.4306 58.8115 74.4093 58.805C74.3528 58.7853 74.2939 58.7735 74.2343 58.77C74.2201 58.77 74.2073 58.7612 74.1932 58.7612L1.11006 58.5424C0.931527 58.5424 0.760303 58.6134 0.634058 58.7396C0.507813 58.8659 0.43689 59.0371 0.43689 59.2156L0 202.795C0 202.973 0.0709235 203.145 0.197168 203.271C0.323413 203.397 0.494637 203.468 0.673174 203.468L106.361 203.791C106.54 203.791 106.711 203.72 106.838 203.593C106.964 203.467 107.035 203.296 107.035 203.117L107.371 92.1446C107.375 92.1318 107.367 92.119 107.367 92.1042ZM74.8569 61.0648L89.8687 76.1621L105.078 91.4647L74.7681 91.3725L74.8569 61.0648ZM1.34635 202.126L1.77718 59.8908L73.514 60.1083L73.4177 92.0436C73.4177 92.2222 73.4886 92.3934 73.6149 92.5196C73.7411 92.6459 73.9123 92.7168 74.0909 92.7168L106.026 92.8137L105.694 202.44L1.34635 202.126Z" fill="#262626"/>
<path d="M321.834 197.372L177.705 196.935L178.298 1.13823L277.96 1.44048L322.292 46.0423L321.834 197.372Z" fill="#F2F2F2"/>
<path opacity="0.3" d="M277.96 1.44048L277.825 45.9077L322.292 46.0423L277.96 1.44048Z" fill="#367CFF"/>
<path d="M322.957 46.0019C322.954 45.9432 322.942 45.8853 322.924 45.8296C322.916 45.8074 322.91 45.7865 322.901 45.7623C322.869 45.6892 322.825 45.6224 322.77 45.565L278.438 0.963199C278.38 0.906925 278.314 0.861331 278.24 0.828567C278.219 0.819142 278.199 0.813754 278.178 0.806349C278.121 0.786811 278.062 0.774819 278.003 0.770675C277.989 0.770675 277.976 0.762591 277.962 0.762591L178.3 0.460342C178.122 0.460342 177.95 0.531265 177.824 0.65751C177.698 0.783755 177.627 0.95498 177.627 1.13352L177.034 196.93C177.034 197.109 177.105 197.28 177.231 197.406C177.357 197.532 177.529 197.603 177.707 197.603L321.834 198.04C322.012 198.04 322.183 197.969 322.31 197.843C322.436 197.717 322.507 197.546 322.507 197.367L322.965 46.0376C322.965 46.0295 322.958 46.0167 322.957 46.0019ZM278.627 3.06755L320.668 45.3644L278.499 45.2365L278.627 3.06755ZM178.38 196.264L178.969 1.81342L277.284 2.11164L277.15 45.9056C277.15 46.0842 277.221 46.2554 277.347 46.3817C277.473 46.5079 277.644 46.5788 277.823 46.5788L321.617 46.7135L321.163 196.697L178.38 196.264Z" fill="#262626"/>
<path d="M498.988 203.117L393.296 202.797L393.731 59.2156L466.815 59.4371L499.324 92.1446L498.988 203.117Z" fill="#F2F2F2"/>
<path opacity="0.3" d="M466.815 59.4371L466.716 92.0457L499.324 92.1446L466.815 59.4371Z" fill="#367CFF"/>
<path d="M499.989 92.1042C499.986 92.0453 499.974 91.9871 499.956 91.9312C499.948 91.9097 499.942 91.8888 499.933 91.8673C499.901 91.7943 499.857 91.7275 499.802 91.67L467.292 58.9625C467.235 58.9062 467.168 58.8606 467.095 58.8279C467.074 58.8185 467.053 58.8124 467.032 58.805C466.976 58.7854 466.917 58.7736 466.858 58.77C466.843 58.77 466.831 58.7612 466.817 58.7612L393.733 58.5398C393.554 58.5398 393.383 58.6107 393.257 58.7369C393.13 58.8632 393.06 59.0344 393.06 59.2129L392.625 202.794C392.625 202.973 392.696 203.144 392.822 203.27C392.948 203.396 393.119 203.467 393.298 203.467L498.99 203.788C499.169 203.788 499.34 203.717 499.466 203.591C499.592 203.464 499.663 203.293 499.663 203.115L500 92.1419C499.997 92.1318 499.99 92.119 499.989 92.1042ZM467.482 61.0648L482.489 76.1621L497.701 91.4647L467.391 91.3725L467.482 61.0648ZM393.972 202.126L394.403 59.8908L466.14 60.1083L466.043 92.0436C466.043 92.2222 466.114 92.3934 466.24 92.5196C466.366 92.6459 466.538 92.7168 466.716 92.7168L498.652 92.8137L498.32 202.44L393.972 202.126Z" fill="#262626"/>
<path d="M213.999 115.24C219.572 115.24 224.089 110.723 224.089 105.15C224.089 99.578 219.572 95.0608 213.999 95.0608C208.427 95.0608 203.91 99.578 203.91 105.15C203.91 110.723 208.427 115.24 213.999 115.24Z" fill="#292A2E"/>
<path d="M283.183 115.24C288.755 115.24 293.272 110.723 293.272 105.15C293.272 99.578 288.755 95.0608 283.183 95.0608C277.61 95.0608 273.093 99.578 273.093 105.15C273.093 110.723 277.61 115.24 283.183 115.24Z" fill="#292A2E"/>
<path d="M262.118 133.053H235.064C234.886 133.053 234.715 132.982 234.588 132.856C234.462 132.73 234.391 132.559 234.391 132.38C234.391 132.202 234.462 132.03 234.588 131.904C234.715 131.778 234.886 131.707 235.064 131.707H262.118C262.296 131.707 262.468 131.778 262.594 131.904C262.72 132.03 262.791 132.202 262.791 132.38C262.791 132.559 262.72 132.73 262.594 132.856C262.468 132.982 262.296 133.053 262.118 133.053Z" fill="#262626"/>
<path d="M203.591 134.011C208.562 134.011 212.592 131.89 212.592 129.274C212.592 126.658 208.562 124.537 203.591 124.537C198.621 124.537 194.591 126.658 194.591 129.274C194.591 131.89 198.621 134.011 203.591 134.011Z" fill="#F2F2F2"/>
<path d="M293.591 134.011C298.561 134.011 302.591 131.89 302.591 129.274C302.591 126.658 298.561 124.537 293.591 124.537C288.62 124.537 284.59 126.658 284.59 129.274C284.59 131.89 288.62 134.011 293.591 134.011Z" fill="#F2F2F2"/>
<path d="M322.509 47.6471C305.329 27.9227 281.018 15.8303 254.923 14.0297C228.828 12.2291 203.086 20.8678 183.36 38.0457C150.404 66.7478 140.277 114.466 158.737 154.101C162.444 162.043 167.197 169.453 172.869 176.134L174.081 177.57L83.7462 273.437C82.0943 275.216 81.2127 277.576 81.2937 280.002C81.3748 282.428 82.4118 284.724 84.1787 286.389C85.9456 288.053 88.2991 288.952 90.7258 288.888C93.1525 288.825 95.4557 287.804 97.1329 286.049L187.445 190.196L188.954 191.326C208.443 205.945 232.653 212.833 256.919 210.663C281.185 208.494 303.789 197.42 320.376 179.576C336.963 161.732 346.359 138.381 346.753 114.021C347.148 89.662 338.512 66.0186 322.512 47.6471H322.509ZM328.172 117.945C326.774 138.199 317.75 157.17 302.919 171.035C288.088 184.9 268.553 192.627 248.251 192.66C246.377 192.66 244.496 192.593 242.609 192.458C229.43 191.564 216.676 187.431 205.477 180.427C194.279 173.422 184.982 163.762 178.41 152.304C171.839 140.846 168.197 127.943 167.807 114.74C167.417 101.537 170.291 88.4418 176.174 76.6156C182.057 64.7894 190.768 54.5976 201.533 46.9442C212.299 39.2908 224.787 34.4122 237.889 32.7411C250.992 31.0699 264.305 32.6579 276.646 37.3642C288.988 42.0704 299.978 49.7495 308.642 59.7205C315.582 67.6542 320.881 76.8846 324.234 86.8784C327.586 96.8722 328.925 107.431 328.172 117.945Z" fill="#374151"/>
</svg>
