<svg width="524" height="412" viewBox="0 0 524 412" fill="none" xmlns="http://www.w3.org/2000/svg">
<path opacity="0.08" d="M121.16 383.708C219.432 448.867 361.042 389.367 448.527 310.314C532.494 234.44 573.327 37.421 421.791 5.171C358.694 -8.257 330 5.747 283.532 32.415C246.018 53.945 194.472 43.754 157.192 24.455C104.478 -2.833 39.513 36.857 11.7 96.711C-22.373 170.061 19.112 316.044 121.16 383.708Z" fill="white"/>
<path opacity="0.1" d="M121.16 383.708C219.432 448.867 361.042 389.367 448.527 310.314C532.494 234.44 573.327 37.421 421.791 5.171C358.694 -8.257 330 5.747 283.532 32.415C246.018 53.945 194.472 43.754 157.192 24.455C104.478 -2.833 39.513 36.857 11.7 96.711C-22.373 170.061 19.112 316.044 121.16 383.708Z" fill="#F5CED5"/>
<path d="M138.684 63.519C138.684 63.519 136.537 95.735 129.29 107.419C108.424 141.067 102.379 178.919 123.274 198.696C144.169 218.473 277.444 218.747 287.541 173.26C296.041 134.966 277.8 130.848 273.361 99.26C271.353 84.966 265.828 54.993 265.828 54.993" fill="#0A0A0A"/>
<path d="M253.044 166.6C252.814 166.57 250.261 208.93 201.05 205.237C166.982 202.685 154.835 166.537 154.055 166.537C157.728 165.756 163.913 164.621 165.544 163.751C170.909 160.868 177.544 157.869 179.276 147.451C180.276 141.451 178.576 110.729 179.102 104.651L231.4 116.324C230.669 129.154 225.555 158.899 243.48 164.163C246.458 165.034 249.671 165.834 253.044 166.6Z" fill="#FFB091"/>
<path opacity="0.5" d="M232.129 152.007C231.31 149.367 230.782 146.646 230.556 143.891C229.981 137.605 230.096 131.274 230.898 125.013C220.271 123.578 210.259 119.191 202 112.351C201.029 115.937 195.688 131.607 197.167 135.015C199.958 141.457 213.091 152.007 232.129 152.007Z" fill="#0C0C0C"/>
<path d="M225.367 138.809C204.749 140.809 178.073 132.557 172.547 105.101L167.561 80.327C162.035 52.871 171.976 27.71 197.827 22.507C223.679 17.307 247.481 35.673 253.007 63.129L255.215 74.1C257.335 84.632 262.152 135.25 225.367 138.809Z" fill="#FFB091"/>
<path d="M240.032 105.974C233.333 109.38 225.69 110.457 218.311 109.035C218.056 108.987 217.792 109.012 217.55 109.109C217.309 109.205 217.1 109.368 216.948 109.579C216.795 109.789 216.706 110.039 216.691 110.299C216.675 110.558 216.734 110.817 216.86 111.044C219.06 114.921 224.278 121.544 233.23 118.844C239.01 117.1 241.195 111.153 242.005 107.475C242.06 107.221 242.042 106.956 241.951 106.712C241.861 106.467 241.704 106.254 241.496 106.096C241.289 105.939 241.041 105.844 240.782 105.822C240.523 105.8 240.262 105.853 240.032 105.974Z" fill="white"/>
<path d="M240.451 76.181C242.239 76.181 243.688 74.7317 243.688 72.944C243.688 71.1563 242.239 69.707 240.451 69.707C238.663 69.707 237.214 71.1563 237.214 72.944C237.214 74.7317 238.663 76.181 240.451 76.181Z" fill="#0C0C0C"/>
<path d="M209.347 81.627C211.135 81.627 212.584 80.1777 212.584 78.39C212.584 76.6023 211.135 75.153 209.347 75.153C207.559 75.153 206.11 76.6023 206.11 78.39C206.11 80.1777 207.559 81.627 209.347 81.627Z" fill="#0C0C0C"/>
<path opacity="0.5" d="M233.121 100.562L233.171 100.554C234.219 100.336 235.254 100.06 236.271 99.727C237.789 99.219 239.771 98.385 239.499 97.012C239.185 95.447 231.499 79.43 230.627 77.612C230.591 77.5308 230.538 77.4577 230.473 77.3971C230.408 77.3364 230.332 77.2894 230.248 77.2588C230.164 77.2283 230.076 77.2147 229.987 77.2191C229.898 77.2234 229.811 77.2455 229.731 77.2841C229.65 77.3226 229.579 77.3768 229.52 77.4436C229.461 77.5103 229.416 77.5881 229.388 77.6724C229.359 77.7568 229.348 77.846 229.355 77.9347C229.362 78.0234 229.386 78.1099 229.427 78.189C232.704 85.01 237.982 96.224 238.194 97.278C238.028 97.769 235.51 98.728 232.911 99.252C232.737 99.2801 232.581 99.3762 232.478 99.5192C232.375 99.6622 232.332 99.8404 232.361 100.015C232.389 100.189 232.485 100.344 232.628 100.448C232.771 100.551 232.949 100.593 233.123 100.565L233.121 100.562Z" fill="#0C0C0C"/>
<path d="M146.934 89.22L170.11 84.693C187.617 77.372 192.584 46.861 192.584 46.861C192.584 46.861 214.19 67.437 265.828 54.994C265.828 54.994 254.611 -17.091 178.363 4.794C153.778 11.849 136.363 36.908 138.953 70.101C140.768 93.358 146.934 89.22 146.934 89.22Z" fill="#0A0A0A"/>
<path d="M175.836 113.143C167.98 114.724 159.92 107.601 158.336 99.743C156.752 91.885 162.252 86.272 170.108 84.691L175.216 89.14L182.589 111.781L175.836 113.143Z" fill="#FFB091"/>
<path d="M236.2 64.838C238.165 63.4478 240.464 62.6035 242.862 62.391C244.065 62.2764 245.279 62.3438 246.462 62.591C247.657 62.8348 248.816 63.2275 249.913 63.76L249.947 63.776C250.069 63.8334 250.209 63.8399 250.336 63.7941C250.463 63.7482 250.567 63.6538 250.624 63.5315C250.682 63.4092 250.688 63.2692 250.643 63.1421C250.597 63.0151 250.502 62.9114 250.38 62.854C249.218 62.2406 247.982 61.776 246.704 61.471C245.417 61.158 244.089 61.0404 242.767 61.122C240.088 61.2693 237.498 62.1326 235.267 63.622C235.184 63.6785 235.113 63.7507 235.058 63.8347C235.003 63.9186 234.965 64.0126 234.946 64.1112C234.927 64.2098 234.928 64.3111 234.949 64.4094C234.969 64.5077 235.009 64.601 235.065 64.684C235.121 64.767 235.194 64.8381 235.278 64.8931C235.362 64.9482 235.456 64.9862 235.554 65.0049C235.653 65.0237 235.754 65.0229 235.852 65.0025C235.951 64.982 236.044 64.9425 236.127 64.886L236.145 64.873L236.2 64.838Z" fill="#0C0C0C"/>
<path d="M215.025 67.764C212.393 67.2415 209.669 67.4341 207.137 68.322C205.885 68.7531 204.706 69.3696 203.637 70.151C202.573 70.9223 201.61 71.8244 200.771 72.836C200.682 72.9361 200.637 73.067 200.644 73.2005C200.651 73.3341 200.71 73.4594 200.809 73.5495C200.908 73.6396 201.038 73.6872 201.172 73.6821C201.305 73.6769 201.431 73.6194 201.523 73.522L201.55 73.494C202.359 72.5825 203.28 71.7761 204.29 71.094C205.29 70.412 206.387 69.8851 207.544 69.531C209.841 68.8104 212.288 68.7107 214.636 69.242L214.694 69.256C214.891 69.3037 215.099 69.2713 215.272 69.1658C215.445 69.0603 215.569 68.8904 215.617 68.6935C215.664 68.4966 215.632 68.2888 215.526 68.1158C215.421 67.9427 215.251 67.8187 215.054 67.771L215.025 67.764Z" fill="#0C0C0C"/>
<path d="M170.126 84.313C185.705 78.513 190.875 67.755 192.467 59.749C193.497 54.4097 193.401 48.9139 192.184 43.614L191.702 43.746C192.901 48.9771 192.993 54.401 191.974 59.67C190.402 67.545 185.306 78.131 169.951 83.845L170.126 84.313Z" fill="#0C0C0C"/>
<path d="M314.4 192.735L378.115 362.148L325.235 347.189L445.5 257.489L488.346 316.077L366.416 403.5C362.182 406.529 357.328 408.581 352.205 409.507C347.082 410.433 341.818 410.21 336.791 408.854C331.765 407.498 327.102 405.044 323.139 401.667C319.177 398.291 316.013 394.077 313.877 389.329L313.536 388.541L240.346 223L314.4 192.735Z" fill="#F5CED5"/>
<path d="M200.132 194.643C166.04 193.036 164.605 164.099 164.605 164.099C164.605 164.099 147.713 165.191 136.484 166.71C118.1 169.198 105.972 175.432 96.32 185.083C87.342 194.061 81.876 203.775 87.66 265.794C91.848 310.7 88.9 409.473 88.9 409.473H294.65C294.65 409.473 306.988 280.008 308.708 259.794C311.99 221.204 325.432 199.454 306.644 179.576C293.019 165.16 257.844 164.099 243.686 164.102C243.456 164.1 246.56 196.831 200.132 194.643Z" fill="#F5CED5"/>
<path d="M304.511 277.913C304.519 277.78 304.58 277.657 304.68 277.569C304.779 277.481 304.91 277.436 305.043 277.444C305.175 277.453 305.299 277.514 305.387 277.613C305.475 277.713 305.519 277.843 305.511 277.976L301.326 344.8C301.319 344.92 301.268 345.034 301.184 345.12C301.1 345.206 300.987 345.258 300.867 345.268C300.844 345.268 300.82 345.268 300.796 345.268C300.664 345.26 300.54 345.199 300.452 345.1C300.364 345.001 300.32 344.87 300.328 344.738" fill="#0C0C0C"/>
<path d="M460.484 271.915C460.537 271.181 460.738 270.465 461.076 269.811C461.415 269.157 461.883 268.579 462.452 268.112C463.021 267.645 463.679 267.299 464.387 267.095C465.094 266.891 465.836 266.833 466.566 266.925C467.974 267.152 469.242 267.905 470.116 269.031C470.99 270.158 471.403 271.574 471.273 272.994L470.751 280.294L481.467 260.63C482.783 258.13 485.997 255.902 488.704 257.563C490.982 258.763 495.275 258.11 496.857 261.118C496.884 261.128 505.157 290.418 503.937 292.742C498.76 302.584 481.351 309.142 470.285 308.042L452.869 306.297L460.484 271.915Z" fill="#FFB091"/>
<g opacity="0.1">
<path d="M460.484 271.915C460.537 271.181 460.738 270.465 461.076 269.811C461.415 269.157 461.883 268.579 462.452 268.112C463.021 267.645 463.679 267.299 464.387 267.095C465.094 266.891 465.836 266.833 466.566 266.925C467.974 267.152 469.242 267.905 470.116 269.031C470.99 270.158 471.403 271.574 471.273 272.994L470.751 280.294L481.467 260.63C482.783 258.13 485.997 255.902 488.704 257.563C490.982 258.763 495.275 258.11 496.857 261.118C496.884 261.128 505.157 290.418 503.937 292.742C498.76 302.584 481.351 309.142 470.285 308.042L452.869 306.297L460.484 271.915Z" fill="#0C0C0C"/>
</g>
<path d="M479.556 249.654C459.556 224.354 422.256 226.027 396.956 246.028L395.356 247.346L393.933 245.62C373.433 220.72 337.196 211.189 312.299 231.694C306.379 236.57 301.477 242.564 297.873 249.334C294.27 256.104 292.035 263.517 291.297 271.151C290.558 278.785 291.331 286.489 293.57 293.824C295.809 301.16 299.471 307.982 304.347 313.902L372.2 394.687C374.402 397.307 377.545 398.957 380.952 399.28C384.359 399.602 387.757 398.572 390.411 396.412L471.824 330.14C483.248 320.313 490.431 306.451 491.872 291.452C493.312 276.452 488.9 261.476 479.556 249.654Z" fill="#FF5E7B"/>
<path d="M480.457 286.031C480.455 285.064 480.77 284.122 481.353 283.35C481.936 282.578 482.755 282.017 483.686 281.754C483.653 281.683 483.523 281.534 483.649 281.484L480 280.838C478.922 280.671 477.94 280.119 477.237 279.285C476.534 278.451 476.157 277.39 476.175 276.299C476.228 275.222 476.679 274.204 477.44 273.44C478.201 272.677 479.218 272.224 480.295 272.168C480.27 272.133 480.278 272.084 480.265 272.042L478.765 271.776C477.75 271.614 476.821 271.107 476.137 270.34C475.453 269.572 475.055 268.592 475.01 267.565C474.995 266.92 475.124 266.28 475.386 265.691C475.649 265.102 476.039 264.579 476.528 264.159C477.018 263.739 477.594 263.433 478.216 263.262C478.838 263.092 479.49 263.062 480.125 263.174L483.583 263.787C483.583 263.768 483.567 263.754 483.57 263.735C483.573 263.716 483.599 263.697 483.606 263.675C482.696 263.293 481.944 262.613 481.471 261.747C480.999 260.881 480.835 259.881 481.006 258.909C481.285 256.373 484.281 255.429 486.517 255.825L493.462 257.625C494.533 257.902 495.52 258.44 496.333 259.19C497.147 259.94 497.763 260.88 498.126 261.925C501.269 270.974 508.915 294.806 501.779 293.542L484.214 290.43C483.188 290.218 482.262 289.671 481.582 288.874C480.902 288.078 480.506 287.077 480.457 286.031Z" fill="#FFB091"/>
<path d="M268.329 319.794L295.611 299.087C296.211 298.632 296.898 298.307 297.63 298.133C298.362 297.958 299.123 297.938 299.863 298.073C300.604 298.209 301.308 298.497 301.93 298.919C302.553 299.342 303.081 299.889 303.481 300.527C304.182 301.727 304.413 303.145 304.128 304.505C303.843 305.866 303.064 307.072 301.94 307.89L296.09 312.33L320.896 306.812C323.643 306.151 327.438 307.096 327.977 310.226C328.263 311.417 328.137 312.67 327.619 313.781C327.102 314.891 326.223 315.793 325.127 316.34C325.14 316.364 325.15 316.39 325.157 316.416C325.159 316.437 325.159 316.458 325.157 316.479L329.393 315.459C330.178 315.27 330.995 315.259 331.784 315.426C332.574 315.593 333.317 315.935 333.958 316.425C334.599 316.915 335.122 317.543 335.49 318.261C335.858 318.98 336.061 319.771 336.084 320.578C336.095 321.849 335.669 323.086 334.877 324.081C334.085 325.075 332.976 325.768 331.735 326.043L329.935 326.478C329.924 326.536 329.902 326.591 329.871 326.641C331.157 326.63 332.404 327.077 333.391 327.901C334.377 328.726 335.038 329.874 335.256 331.141C335.453 332.535 335.117 333.952 334.316 335.109C333.514 336.266 332.305 337.079 330.931 337.384L326.454 338.462C326.528 338.492 326.594 338.538 326.646 338.598C326.698 338.658 326.735 338.73 326.754 338.807C326.773 338.9 326.764 338.996 326.728 339.084C327.876 339.393 328.891 340.07 329.616 341.011C330.342 341.953 330.738 343.106 330.744 344.295C330.725 345.544 330.284 346.749 329.495 347.717C328.705 348.684 327.612 349.356 326.392 349.625L288.611 358.725C283.326 359.998 277.78 359.663 272.686 357.764C267.593 355.865 263.182 352.487 260.02 348.065C257.294 344.252 256.161 339.526 256.864 334.891C257.566 330.256 260.048 326.078 263.782 323.244L268.329 319.794Z" fill="#FFB091"/>
<g opacity="0.2">
<path d="M300.6 321.924C300.631 322.051 300.711 322.16 300.822 322.229C300.933 322.298 301.067 322.32 301.194 322.292L324.778 317.014C324.908 316.985 325.02 316.906 325.091 316.793C325.162 316.681 325.186 316.546 325.157 316.416C325.128 316.286 325.049 316.174 324.936 316.103C324.824 316.032 324.689 316.008 324.559 316.037L300.975 321.315C300.911 321.329 300.85 321.356 300.796 321.394C300.742 321.432 300.696 321.481 300.661 321.536C300.626 321.592 300.602 321.654 300.591 321.719C300.58 321.784 300.582 321.851 300.597 321.915L300.6 321.924Z" fill="#0C0C0C"/>
</g>
<g opacity="0.2">
<path d="M302.641 332.39C302.673 332.517 302.753 332.626 302.864 332.695C302.975 332.763 303.109 332.786 303.236 332.757L329.555 326.867C329.619 326.853 329.68 326.826 329.734 326.788C329.788 326.75 329.834 326.702 329.869 326.646C329.905 326.59 329.928 326.528 329.94 326.463C329.951 326.398 329.949 326.331 329.934 326.267C329.901 326.139 329.821 326.029 329.709 325.959C329.597 325.889 329.463 325.864 329.334 325.889L303.014 331.779C302.95 331.793 302.889 331.82 302.835 331.858C302.781 331.896 302.735 331.945 302.7 332C302.665 332.056 302.641 332.118 302.63 332.183C302.619 332.248 302.621 332.315 302.636 332.379L302.641 332.39Z" fill="#0C0C0C"/>
</g>
<g opacity="0.2">
<path d="M304.786 343.737C304.818 343.864 304.897 343.973 305.009 344.042C305.12 344.11 305.254 344.133 305.381 344.104L326.381 339.404C326.51 339.375 326.623 339.296 326.694 339.184C326.765 339.072 326.789 338.936 326.759 338.806C326.73 338.677 326.651 338.564 326.539 338.493C326.427 338.423 326.291 338.399 326.162 338.428L305.162 343.128C305.098 343.142 305.037 343.169 304.983 343.207C304.929 343.245 304.883 343.294 304.848 343.349C304.813 343.405 304.789 343.467 304.778 343.532C304.767 343.597 304.769 343.664 304.784 343.728L304.786 343.737Z" fill="#0C0C0C"/>
</g>
<path d="M280.044 369.339L106.657 408.753C100.897 409.38 95.0701 408.664 89.6335 406.66C84.1968 404.657 79.2983 401.421 75.3224 397.207C71.3464 392.992 68.4011 387.913 66.7175 382.369C65.0339 376.825 64.658 370.967 65.619 365.253L85.461 205.653C87.111 195.845 92.5897 187.095 100.692 181.326C108.794 175.558 118.855 173.244 128.663 174.894C138.471 176.544 147.221 182.023 152.99 190.125C158.758 198.227 161.072 208.288 159.422 218.096L149.867 332.331L270.331 305.07L280.044 369.339Z" fill="#F5CED5"/>
<path d="M125.49 336.819C125.357 336.829 125.226 336.785 125.126 336.698C125.025 336.611 124.963 336.488 124.953 336.355C124.944 336.223 124.987 336.092 125.074 335.991C125.161 335.891 125.284 335.829 125.417 335.819L149.578 330.661C149.643 330.65 149.71 330.653 149.774 330.668C149.838 330.683 149.898 330.712 149.951 330.751C150.004 330.79 150.048 330.839 150.082 330.896C150.115 330.953 150.137 331.016 150.146 331.081C150.165 331.212 150.132 331.345 150.053 331.452C149.975 331.558 149.857 331.629 149.726 331.649L125.565 336.808C125.54 336.814 125.515 336.817 125.49 336.819Z" fill="#0C0C0C"/>
<path d="M111.859 409.473C111.726 409.482 111.596 409.437 111.496 409.35C111.396 409.262 111.335 409.138 111.327 409.005C111.318 408.873 111.362 408.742 111.45 408.642C111.538 408.543 111.661 408.482 111.794 408.473L278.956 369.102L269.484 305.802L149.739 331.656C149.661 331.666 149.582 331.658 149.508 331.633C149.435 331.607 149.368 331.564 149.313 331.508C149.259 331.451 149.219 331.383 149.195 331.308C149.172 331.233 149.167 331.154 149.18 331.077L155.897 265.807C155.907 265.742 155.93 265.679 155.964 265.623C155.999 265.567 156.044 265.518 156.098 265.48C156.152 265.442 156.213 265.415 156.277 265.4C156.342 265.386 156.408 265.385 156.473 265.397C156.604 265.419 156.72 265.492 156.797 265.6C156.874 265.708 156.905 265.842 156.883 265.973L150.283 330.573L269.717 304.703C269.781 304.685 269.848 304.681 269.915 304.689C269.981 304.698 270.044 304.719 270.102 304.753C270.159 304.787 270.21 304.832 270.25 304.885C270.29 304.939 270.319 304.999 270.335 305.064L280.048 369.337C280.079 369.463 280.059 369.597 279.993 369.709C279.927 369.821 279.82 369.902 279.695 369.937L111.924 409.469C111.902 409.472 111.881 409.473 111.859 409.473Z" fill="#0C0C0C"/>
<path d="M495.251 118.335C488.651 107.184 473.708 105.845 462.557 112.447L461.85 112.886L461.377 112.122C454.552 101.106 440.639 95.361 429.623 102.185C424.334 105.462 420.563 110.706 419.14 116.764C417.717 122.821 418.758 129.195 422.034 134.485L444.706 170.3C445.442 171.462 446.604 172.288 447.944 172.6C449.283 172.911 450.691 172.684 451.864 171.967L487.844 149.961C492.92 146.663 496.524 141.531 497.905 135.637C499.285 129.743 498.334 123.544 495.251 118.335Z" fill="#FF5E7B"/>
<path opacity="0.2" d="M495.251 118.335C488.651 107.184 473.708 105.845 462.557 112.447L461.85 112.886L461.377 112.122C454.552 101.106 440.639 95.361 429.623 102.185C424.334 105.462 420.563 110.706 419.14 116.764C417.717 122.821 418.758 129.195 422.034 134.485L444.706 170.3C445.442 171.462 446.604 172.288 447.944 172.6C449.283 172.911 450.691 172.684 451.864 171.967L487.844 149.961C492.92 146.663 496.524 141.531 497.905 135.637C499.285 129.743 498.334 123.544 495.251 118.335Z" fill="white"/>
<path d="M396.715 13.166C390.72 9.657 383.368 12.916 379.86 18.911L379.642 19.3L379.222 19.066C373.157 15.678 365.142 16.604 361.754 22.666C360.948 24.108 360.434 25.6947 360.241 27.3355C360.049 28.9762 360.181 30.6389 360.631 32.2284C361.081 33.8179 361.84 35.3032 362.864 36.5995C363.888 37.8957 365.158 38.9775 366.6 39.783L386.543 50.672C387.19 51.0252 387.95 51.1099 388.659 50.9076C389.368 50.7054 389.969 50.2325 390.332 49.591L401.471 29.917C402.992 27.0506 403.347 23.7071 402.461 20.5853C401.574 17.4636 399.516 14.8052 396.715 13.166Z" fill="#F5CED5"/>
<path opacity="0.5" d="M396.715 13.166C390.72 9.657 383.368 12.916 379.86 18.911L379.642 19.3L379.222 19.066C373.157 15.678 365.142 16.604 361.754 22.666C360.948 24.108 360.434 25.6947 360.241 27.3355C360.049 28.9762 360.181 30.6389 360.631 32.2284C361.081 33.8179 361.84 35.3032 362.864 36.5995C363.888 37.8957 365.158 38.9775 366.6 39.783L386.543 50.672C387.19 51.0252 387.95 51.1099 388.659 50.9076C389.368 50.7054 389.969 50.2325 390.332 49.591L401.471 29.917C402.992 27.0506 403.347 23.7071 402.461 20.5853C401.574 17.4636 399.516 14.8052 396.715 13.166Z" fill="#FF5E7B"/>
<path d="M491.642 410.473H50.444C50.1788 410.473 49.9244 410.368 49.7369 410.18C49.5494 409.993 49.444 409.738 49.444 409.473C49.444 409.208 49.5494 408.953 49.7369 408.766C49.9244 408.578 50.1788 408.473 50.444 408.473H491.644C491.909 408.473 492.164 408.578 492.351 408.766C492.539 408.953 492.644 409.208 492.644 409.473C492.644 409.738 492.539 409.993 492.351 410.18C492.164 410.368 491.909 410.473 491.644 410.473H491.642Z" fill="#292A2E"/>
</svg>
