<svg width="512" height="449" viewBox="0 0 512 449" fill="none" xmlns="http://www.w3.org/2000/svg">
<path d="M313.4 1.90002C339.4 7.10002 356.3 32.4 351.1 58.4L348.8 69.8C343.5 96.5 333.7 121.9 320 145H464C490.5 145 512 166.5 512 193C512 211.5 501.5 227.6 486.1 235.6C497 244.4 504 257.9 504 273C504 296.4 487.2 315.9 465.1 320.1C469.5 327.4 472 335.9 472 345C472 366.3 458.1 384.4 438.9 390.6C439.6 393.9 440 397.4 440 401C440 427.5 418.5 449 392 449H294.5C275.5 449 257 443.4 241.2 432.9L202.7 407.2C176 389.4 160 359.4 160 327.3V289V241V216.1C160 186.9 173.3 159.4 196 141.1L203.4 135.2C229.9 114 248 84.2 254.6 51L256.9 39.6C262.1 13.6 287.4 -3.29998 313.4 1.90002ZM32 161H96C113.7 161 128 175.3 128 193V417C128 434.7 113.7 449 96 449H32C14.3 449 0 434.7 0 417V193C0 175.3 14.3 161 32 161Z" fill="white" fill-opacity="0.5"/>
</svg>
