<svg width="650" height="650" viewBox="0 0 650 650" fill="none" xmlns="http://www.w3.org/2000/svg">
<g filter="url(#filter0_d_156_46)">
<path fill-rule="evenodd" clip-rule="evenodd" d="M243.626 44.24C283.507 -11.5947 366.49 -11.5947 406.373 44.24L412.723 53.129C419.74 62.9557 431.527 68.2174 443.527 66.884L471.827 63.7393C535.52 56.6627 589.337 110.48 582.26 174.171L579.117 202.472C577.783 214.473 583.043 226.258 592.87 233.277L601.76 239.626C657.593 279.507 657.593 362.49 601.76 402.373L592.87 408.723C583.043 415.74 577.783 427.527 579.117 439.527L582.26 467.827C589.337 531.52 535.52 585.337 471.827 578.26L443.527 575.117C431.527 573.783 419.74 579.043 412.723 588.87L406.373 597.76C366.49 653.593 283.51 653.593 243.626 597.76L237.277 588.87C230.258 579.043 218.473 573.783 206.471 575.117L178.171 578.26C114.48 585.337 60.6627 531.52 67.7393 467.827L70.884 439.527C72.2174 427.527 66.9557 415.74 57.129 408.723L48.24 402.373C-7.59465 362.49 -7.59465 279.51 48.24 239.626L57.129 233.277C66.9557 226.258 72.2174 214.473 70.884 202.471L67.7393 174.171C60.6627 110.48 114.48 56.6627 178.171 63.7393L206.472 66.884C218.473 68.2174 230.258 62.9557 237.277 53.129L243.626 44.24ZM448.57 230.763C461.587 243.781 461.587 264.887 448.57 277.903L321.273 405.2C304.923 421.553 278.41 421.553 262.06 405.2L201.43 344.57C188.412 331.553 188.412 310.447 201.43 297.43C214.447 284.413 235.553 284.413 248.57 297.43L291.667 340.527L401.43 230.763C414.447 217.746 435.553 217.746 448.57 230.763Z" fill="#1F2937"/>
</g>
<defs>
<filter id="filter0_d_156_46" x="0.364014" y="0.364014" width="649.271" height="649.271" filterUnits="userSpaceOnUse" color-interpolation-filters="sRGB">
<feFlood flood-opacity="0" result="BackgroundImageFix"/>
<feColorMatrix in="SourceAlpha" type="matrix" values="0 0 0 0 0 0 0 0 0 0 0 0 0 0 0 0 0 0 127 0" result="hardAlpha"/>
<feOffset dy="4"/>
<feGaussianBlur stdDeviation="3"/>
<feComposite in2="hardAlpha" operator="out"/>
<feColorMatrix type="matrix" values="0 0 0 0 0 0 0 0 0 0 0 0 0 0 0 0 0 0 0.1 0"/>
<feBlend mode="normal" in2="BackgroundImageFix" result="effect1_dropShadow_156_46"/>
<feBlend mode="normal" in="SourceGraphic" in2="effect1_dropShadow_156_46" result="shape"/>
</filter>
</defs>
</svg>
