<svg width="365" height="376" viewBox="0 0 365 376" fill="none" xmlns="http://www.w3.org/2000/svg">
<path fill-rule="evenodd" clip-rule="evenodd" d="M0 11.1152L12.1667 16.6008C24.3333 22.0864 48.6667 33.0576 73 29.4005C97.3333 25.7435 121.667 7.45812 146 1.97252C170.333 -3.51308 194.667 3.80105 219 7.45812C243.333 11.1152 267.667 11.1152 292 9.28666C316.333 7.45812 340.667 3.80105 352.833 1.97252L365 0.143987V55H352.833C340.667 55 316.333 55 292 55C267.667 55 243.333 55 219 55C194.667 55 170.333 55 146 55C121.667 55 97.3333 55 73 55C48.6667 55 24.3333 55 12.1667 55H0V11.1152Z" fill="white" fill-opacity="0.15"/>
<rect y="55" width="365" height="321" fill="white" fill-opacity="0.15"/>
</svg>
